<svg width="1440" height="440" xmlns="http://www.w3.org/2000/svg">
 <defs>
  <style>.cls-1{fill:#333c41;}.cls-2{fill:#c6c7c7;}</style>
 </defs>
 <title>Nautic Network</title>
 <g>
  <title>Layer 1</title>
  <g id="svg_16">
   <path id="svg_1" d="m680.26831,76.0232l0,108.23998l-83.63995,-108.23998l-25.39001,0l0,156.45l27.28003,0l0,-111.31l86,111.31l23,0l0,-156.45l-27.25006,0z" class="cls-1"/>
   <path id="svg_2" d="m1025.8584,76.0232l0,90.08001c0,14.47998 -3.58002,25.29999 -10.62006,32.64001s-16.67004,10.90997 -29,10.90997s-22.21997,-3.77002 -29.27002,-11.31s-10.51001,-18.75 -10.51001,-33.33002l0,-88.99999l-27.28003,0l0,90.08001c0,11.31 1.58008,21.33002 4.66003,29.85999a58.08,58.08 0 0 0 13.48999,21.53003a54.46,54.46 0 0 0 20.93005,13.09998a83.12,83.12 0 0 0 27.57996,4.35999a84.29,84.29 0 0 0 27.78003,-4.35999a54.18,54.18 0 0 0 21.13007,-13.20001a59.82,59.82 0 0 0 13.49988,-22c3.17004,-8.72998 4.86011,-19 4.86011,-30.56l0,-88.79998l-27.25,0z" class="cls-1"/>
   <path id="svg_3" d="m1084.15845,76.0232l0,25.48999l49.59985,0l0,130.99999l27.68018,0l0,-130.99999l49.60999,0l0,-25.48999l-126.89001,0z" class="cls-1"/>
   <path id="svg_4" d="m1242.04834,76.0232l0,156.45l27.29004,0l0,-156.45l-27.29004,0z" class="cls-1"/>
   <path id="svg_5" d="m1422.05835,189.61316a96.47,96.47 0 0 1 -20.33997,14.88c-6.84998,3.58002 -15.0802,5.46002 -24.59998,5.46002a49.43,49.43 0 0 1 -20.64014,-4.36005a52.25,52.25 0 0 1 -16.46997,-12a55.2,55.2 0 0 1 -10.70996,-17.76001a64.48,64.48 0 0 1 0,-43.44995a54.25,54.25 0 0 1 10.70996,-17.55999a51.68,51.68 0 0 1 16.46997,-11.81a47.92,47.92 0 0 1 20.64014,-4.36005a51.8,51.8 0 0 1 23.90991,5.35004a86.43,86.43 0 0 1 19.94006,14.08996l17.65979,-20.33996a112.05,112.05 0 0 0 -11.90979,-9.82001a76.47,76.47 0 0 0 -13.59021,-7.73999a79.85,79.85 0 0 0 -16.1698,-5.06a99.35,99.35 0 0 0 -19.55017,-1.78003a82.54,82.54 0 0 0 -32.64001,6.35004a78.22,78.22 0 0 0 -42.15979,43.24999a86.48,86.48 0 0 0 0.09985,63.29999a80.49,80.49 0 0 0 16.66992,25.59998a77.59,77.59 0 0 0 25.1001,17.06a79.76,79.76 0 0 0 31.73999,6.25a96.18,96.18 0 0 0 20,-1.89001a71,71 0 0 0 16.66992,-5.54999a82.85,82.85 0 0 0 14.19019,-8.72998a97.11,97.11 0 0 0 12.59985,-11.51001l-17.61987,-17.87z" class="cls-1"/>
   <polygon id="svg_6" points="638.4583740234375,348.08306884765625 581.3883666992188,275.47308349609375 570.4583740234375,275.47308349609375 570.4583740234375,369.44317626953125 582.1883544921875,369.44317626953125 582.1883544921875,295.12310791015625 640.7083129882812,369.44317626953125 650.1784057617188,369.44317626953125 650.1784057617188,275.47308349609375 638.4583740234375,275.47308349609375 638.4583740234375,348.08306884765625 " class="cls-1"/>
   <polygon id="svg_7" points="713.1483764648438,327.58306884765625 763.5883178710938,327.58306884765625 763.5883178710938,316.54315185546875 713.1483764648438,316.54315185546875 713.1483764648438,286.53314208984375 769.5383911132812,286.53314208984375 769.5383911132812,275.47308349609375 701.1784057617188,275.47308349609375 701.1784057617188,369.44317626953125 770.1882934570312,369.44317626953125 770.1882934570312,358.39312744140625 713.1483764648438,358.39312744140625 713.1483764648438,327.58306884765625 " class="cls-1"/>
   <polygon id="svg_8" points="809.4483032226562,286.65313720703125 840.4783325195312,286.65313720703125 840.4783325195312,369.44317626953125 852.4583129882812,369.44317626953125 852.4583129882812,286.65313720703125 883.4883422851562,286.65313720703125 883.4883422851562,275.47308349609375 809.4483032226562,275.47308349609375 809.4483032226562,286.65313720703125 " class="cls-1"/>
   <polygon id="svg_9" points="1018.7283325195312,350.80316162109375 993.9083862304688,275.21307373046875 984.2183227539062,275.21307373046875 959.4183959960938,350.80316162109375 933.5682983398438,275.47308349609375 920.5582885742188,275.47308349609375 954.1283569335938,370.10308837890625 963.9282836914062,370.10308837890625 988.8583374023438,296.74310302734375 1013.6683959960938,370.10308837890625 1023.6083374023438,370.10308837890625 1057.1783447265625,275.47308349609375 1044.5582275390625,275.47308349609375 1018.7283325195312,350.80316162109375 " class="cls-1"/>
   <path id="svg_10" d="m1174.40833,288.32306a47.07,47.07 0 0 0 -15.08997,-10.54004a50.73,50.73 0 0 0 -39.12988,0.07007a47.24,47.24 0 0 0 -15.16016,10.66992a48.65,48.65 0 0 0 -9.79004,15.48999a50,50 0 0 0 -3.48987,18.57007a51.14,51.14 0 0 0 3.42004,18.57996a46.41,46.41 0 0 0 24.82996,26a50.68,50.68 0 0 0 39.10999,-0.06995a47.18,47.18 0 0 0 15.17993,-10.68005a48.76,48.76 0 0 0 9.79016,-15.48999a50.24,50.24 0 0 0 3.48999,-18.57996a51.08,51.08 0 0 0 -3.42004,-18.57007a47.08,47.08 0 0 0 -9.74011,-15.44995zm-34.88,-3.25a34.16,34.16 0 0 1 14.26001,3a35.48,35.48 0 0 1 18.75,19.90002a40.5,40.5 0 0 1 2.65015,14.64001a39.87,39.87 0 0 1 -2.65015,14.57996a37.52,37.52 0 0 1 -7.30005,11.83997a33.62,33.62 0 0 1 -11.17981,7.94006a34.94,34.94 0 0 1 -14.27014,2.91003a34.1,34.1 0 0 1 -14.28003,-3a35.43,35.43 0 0 1 -18.73999,-19.90002a40.57,40.57 0 0 1 -2.63989,-14.65002a39.66,39.66 0 0 1 2.63989,-14.57007a37.64,37.64 0 0 1 7.31018,-11.83997a33.86,33.86 0 0 1 11.15979,-7.92993a35,35 0 0 1 14.29004,-2.92004z" class="cls-1"/>
   <path id="svg_11" d="m1293.68823,328.46307a30.46,30.46 0 0 0 8.19995,-5.76001a24.86,24.86 0 0 0 5.38,-8.18994a28.34,28.34 0 0 0 1.91016,-10.65002a27.39,27.39 0 0 0 -2.45007,-11.64001a26.16,26.16 0 0 0 -6.95007,-9a32,32 0 0 0 -10.74988,-5.73999a45.57,45.57 0 0 0 -14,-2l-40.52002,0l0,94l12,0l0,-35.91003l25.25,0l26.81006,35.91003l14.73987,0l-28.56995,-38a37.15,37.15 0 0 0 8.94995,-3.02002zm-47.23999,-41.81006l27.81995,0c7.30017,0 13,1.57007 17,4.68005s5.91016,7.42004 5.91016,13a17.16,17.16 0 0 1 -1.70007,7.72998a16.72,16.72 0 0 1 -4.73999,5.77002a22.42,22.42 0 0 1 -7.30005,3.65002a32.21,32.21 0 0 1 -9.30005,1.28992l-27.69995,0l0.01001,-36.12z" class="cls-1"/>
   <polygon id="svg_12" points="1395.518310546875,316.70306396484375 1435.9383544921875,275.47308349609375 1420.29833984375,275.47308349609375 1368.3182373046875,329.52313232421875 1368.3182373046875,275.47308349609375 1356.3482666015625,275.47308349609375 1356.3482666015625,369.44317626953125 1368.3182373046875,369.44317626953125 1368.3182373046875,344.17315673828125 1387.16845703125,325.07305908203125 1422.3682861328125,369.44317626953125 1437.42822265625,369.44317626953125 1395.518310546875,316.70306396484375 " class="cls-1"/>
   <path id="svg_13" d="m885.47833,196.38318l0,0l-53.06995,-121.42999l-25.5,0l-51.57007,117.99999l0,0l-17.27991,39.51001l28.16992,0l16.80005,-39.51001l72.34998,0l6.19995,14.60999l0,0l10.62,24.90002l29.07007,0l-15.79004,-36.08002zm-91.62,-28.91998l25.34998,-59.7l25.34998,59.7l-50.69995,0z" class="cls-1"/>
   <path id="svg_14" d="m351.57831,319.70306c-0.27002,0 -0.40991,0.06995 -0.75,0.06995a145.78,145.78 0 0 1 -103.64996,-43l-77,-76.99988c-31.16,-31.15997 -77.87,-38.65997 -116.46002,-22.22998a103.59,103.59 0 0 0 -31.41995,20.84003l-22.29999,21.40997l0,141.8999l54.13998,0l42.20999,-40.5l53.80002,53.80005a292.85001,292.85001 0 0 0 30.75998,26.72998a151.81,151.81 0 0 0 94.50003,30.07007a144.5,144.5 0 0 0 22.91003,-2.12c18.81995,-3.68005 37.16992,-10.43005 55.37,-19.57007c-0.82001,0.07007 -1.50006,0.07007 -2.25,0.07007c-63.55005,0.54993 -122.80005,-24.21008 -167.53006,-68.94006l-65.66998,-65.58997a30.88,30.88 0 0 0 -43,-0.47998l-21.54001,20.72998l0,-61.50995l1.63,-1.56c22.57001,-21.69 59,-21.34998 81.07999,0.81l77.05002,76.99994a192.67999,192.67999 0 0 0 137.39996,56.87c0.34003,0 0.75,-0.05994 1,-0.05994a194.73,194.73 0 0 0 46.44006,-5.7301a188.89999,188.89999 0 0 0 53.79993,-22.64001l0,-59.87a146.33,146.33 0 0 1 -100.51001,40.5l-0.01001,0z" class="cls-2"/>
   <path id="svg_15" d="m400.12836,77.0232l-1.83997,1l0,0.91998l-46.29999,47.18999l-58.91998,-58.84997a278.39999,278.39999 0 0 0 -32.93005,-28.16003c-37.29999,-27.20996 -84.68997,-37.42999 -128.99997,-24.68a221.53999,221.53999 0 0 0 -44,18.34003c62.45999,-1.57 125.25998,21.27002 172.24002,68.26001l71,70.99999a30.6,30.6 0 0 0 21.69,9l0.12994,0a30.79,30.79 0 0 0 21.83002,-9.20001l24.33997,-24.83002l0,59.53003l-5.51001,5.49994a57.78,57.78 0 0 1 -41.08002,17.34003l-0.33997,0a57.34,57.34 0 0 1 -40.91003,-17l-78.88998,-78.83002c-47.87,-47.86999 -115.57999,-65.38995 -177.89996,-52.29998a191.61,191.61 0 0 0 -53.74002,19.91003l0,57.47997a144,144 0 0 1 53.74002,-28.35999c49.69998,-13.99999 105.47998,-1.64001 144.13998,37l78.89996,78.8299a104.79,104.79 0 0 0 74.6601,31l0.54999,0a105.35,105.35 0 0 0 46.29999,-10.83997a107.7,107.7 0 0 0 28.70001,-20.80005l25.09998,-25.56989l0,-142.88l-51.96002,0z" class="cls-2"/>
  </g>
 </g>
</svg>